<svg id="svg2" xmlns:rdf="http://www.w3.org/1999/02/22-rdf-syntax-ns#" xmlns="http://www.w3.org/2000/svg" xml:space="preserve" height="140" viewBox="0 0 624.92615 140" width="624.93" version="1.1" xmlns:cc="http://creativecommons.org/ns#" xmlns:dc="http://purl.org/dc/elements/1.1/"><defs id="defs6"><clipPath id="clipPath16" clipPathUnits="userSpaceOnUse"><path id="path18" d="m0 600h1200v-600h-1200v600z"/></clipPath><clipPath id="clipPath44" clipPathUnits="userSpaceOnUse"><path id="path46" d="m495.97 315.27h136.44v-38.539h-136.44v38.539z"/></clipPath></defs><g id="g10" transform="matrix(1.25 0 0 -1.25 -437.54 445)"><g id="g12"><g id="g14" clip-path="url(#clipPath16)"><g id="g20" transform="translate(375.97 332)"><path id="path22" d="m0 0c-13.254 0-24-10.746-24-24 0-13.256 10.746-24 24-24l24-24v24 24c0 13.254-10.746 24-24 24" fill="#fc0"/></g><g id="g24" transform="translate(445.23 282.63)"><path id="path26" d="m0 0c-6.248 6.248-16.379 6.248-22.628 0l-11.313-11.314-11.314-11.313h22.627c6.249-6.25 16.379-6.25 22.628 0 6.248 6.248 6.248 16.379 0 22.627" fill="#3cf"/></g><g id="g28" transform="translate(391.97 260)"><path id="path30" d="m0 0h-8c-4.418 0-8-3.582-8-8 0-4.42 3.582-8 8-8s8 3.58 8 8l8 8h-8z" fill="#e133ff"/></g><g id="g32" transform="translate(431.97 312)"><path id="path34" d="m0 0c-6.628 0-12 5.371-12 12 0 6.627 5.372 12 12 12s12-5.373 12-12c0-6.629-5.372-12-12-12m0 44c-17.673 0-32-14.326-32-32v-32-32l32 32c17.673 0 32 14.326 32 32s-14.327 32-32 32" fill="#f90"/></g><g id="g36" transform="translate(354.72 282.63)"><path id="path38" d="m0 0c6.248 6.248 16.379 6.248 22.628 0l11.313-11.314 11.314-11.313h-22.627c-6.249-6.25-16.379-6.25-22.628 0-6.248 6.248-6.248 16.379 0 22.627" fill="#f39"/></g><g id="g40"><g id="g48"><g id="g50" opacity=".39999" clip-path="url(#clipPath44)"><g id="g52" transform="translate(506.82 308.87)"><path id="path54" d="m0 0h-10.854v6.402h29.536v-6.402h-10.959v-32.137h-7.723v32.137z" fill="#004b75"/></g><g id="g56" transform="translate(531.78 315.27)"><path id="path58" d="m0 0h23.686v-6.402h-15.965v-8.911h13.562v-6.455h-13.562v-10.312h16.535v-6.459h-24.256v38.539z" fill="#004b75"/></g><g id="g60" transform="translate(580.32 292.62)"><path id="path62" d="m0 0-1.148 4.221c-1.196 4.008-2.243 8.435-3.389 12.603h-0.207c-0.994-4.219-2.141-8.595-3.289-12.603l-1.145-4.221h9.178zm1.67-5.992h-12.52l-2.713-9.893h-7.826l12.368 38.539h9.072l12.418-38.539h-8.084l-2.715 9.893z" fill="#004b75"/></g><g id="g64" transform="translate(597.35 315.27)"><path id="path66" d="m0 0h8.557l6.572-18.018c0.836-2.394 1.566-4.949 2.35-7.447h0.255c0.838 2.498 1.516 5.053 2.352 7.447l6.414 18.018h8.561v-38.539h-7.045v16.094c0 3.646 0.576 9.011 0.937 12.656h-0.205l-3.133-9.065-5.945-16.197h-4.436l-6.004 16.197-3.072 9.065h-0.209c0.362-3.645 0.988-9.01 0.988-12.656v-16.094h-6.937v38.539z" fill="#004b75"/></g></g></g></g><g id="g68" transform="translate(654.12 296.52)"><path id="path70" d="m0 0c5.324 0 7.881 2.24 7.881 6.666 0 4.479-2.815 5.99-8.137 5.99h-4.387v-12.656h4.643zm-12.359 18.748h12.673c8.557 0 15.129-2.967 15.129-12.082 0-8.801-6.623-12.758-14.92-12.758h-5.166v-13.699h-7.716v38.539z" fill="#004b75"/></g><g id="g72" transform="translate(699.3 296.16)"><path id="path74" d="m0 0c0 8.283-3.652 13.229-9.393 13.229-5.738 0-9.388-4.946-9.388-13.229 0-8.23 3.65-13.488 9.388-13.488 5.741 0 9.393 5.258 9.393 13.488m-26.662 0c0 12.553 7.045 19.844 17.269 19.844 10.227 0 17.27-7.344 17.27-19.844 0-12.502-7.043-20.156-17.27-20.156-10.224 0-17.269 7.654-17.269 20.156" fill="#004b75"/></g><g id="g76" transform="translate(725.13 296.52)"><path id="path78" d="m0 0c5.322 0 7.879 2.24 7.879 6.666 0 4.479-2.817 5.99-8.141 5.99h-4.384v-12.656h4.646zm-12.363 18.748h12.675c8.557 0 15.131-2.967 15.131-12.082 0-8.801-6.627-12.758-14.922-12.758h-5.167v-13.699h-7.717v38.539z" fill="#004b75"/></g><g id="g80" transform="translate(770.3 296.16)"><path id="path82" d="m0 0c0 8.283-3.652 13.229-9.393 13.229-5.738 0-9.386-4.946-9.386-13.229 0-8.23 3.648-13.488 9.386-13.488 5.741 0 9.393 5.258 9.393 13.488m-26.66 0c0 12.553 7.043 19.844 17.267 19.844 10.225 0 17.266-7.344 17.266-19.844 0-12.502-7.041-20.156-17.266-20.156-10.224 0-17.267 7.654-17.267 20.156" fill="#004b75"/></g><g id="g84" transform="translate(783.77 315.27)"><path id="path86" d="m0 0h7.873l11.223-20.521 3.853-8.331h0.266c-0.422 4.012-0.994 9.118-0.994 13.489v15.363h7.306v-38.539h-7.826l-11.17 20.623-3.908 8.283h-0.26c0.366-4.166 0.94-9.012 0.94-13.437v-15.469h-7.303v38.539z" fill="#004b75"/></g><g id="g88" transform="translate(818.93 295.84)"><path id="path90" d="m0 0c0 12.709 8.244 20.156 18.52 20.156 5.582 0 9.443-2.394 11.947-4.949l-4.121-4.893c-1.879 1.823-4.069 3.227-7.565 3.227-6.414 0-10.902-5-10.902-13.279 0-8.389 3.855-13.438 11.424-13.438 1.877 0 3.752 0.522 4.849 1.457v7.604h-6.832v6.304h13.723v-17.398c-2.613-2.551-7.148-4.635-12.523-4.635-10.538 0-18.52 6.983-18.52 19.844" fill="#004b75"/></g></g></g></g></svg>
