<?xml version="1.0" encoding="utf-8"?>
<!-- Generator: Adobe Illustrator 15.0.2, SVG Export Plug-In  -->
<!DOCTYPE svg PUBLIC "-//W3C//DTD SVG 1.1//EN" "http://www.w3.org/Graphics/SVG/1.1/DTD/svg11.dtd" [
	<!ENTITY ns_flows "http://ns.adobe.com/Flows/1.0/">
]>
<svg version="1.1"
	 xmlns="http://www.w3.org/2000/svg" xmlns:xlink="http://www.w3.org/1999/xlink" xmlns:a="http://ns.adobe.com/AdobeSVGViewerExtensions/3.0/"
	 x="0px" y="0px" width="100px" height="150px" viewBox="-2.8 -0.1 100 150" enable-background="new -2.8 -0.1 100 150"
	 xml:space="preserve">
<defs>
</defs>
<path fill="none" stroke="#8E8E8E" stroke-miterlimit="10" d="M15.1,139.2c0,0-1.6,2.5-4.5,2.9c-2.9,0.4-1.9,4.3-0.2,5.3
	c1.7,1,2.2,2.8,4.5,1.2c1.2-0.8,3.5,0.1,6.5-0.2c1.2-0.1,8.5-3.5,8-6.5c-0.6-3-2-4.9-5.2-3.9c-3.2,1-5.5,0.8-6.4,0.8
	C16.8,138.8,16,138.6,15.1,139.2z"/>
<path fill="none" stroke="#8E8E8E" stroke-miterlimit="10" d="M77.7,100.7c-1.5,0.7-1.4,2-1.4,2c-1.1,3-2.7,1.9-3.6,1.3
	c-0.8-0.6-2-1.4-2.2-0.4c-0.1,0.9-2.4,2-2.4,2c-2.9,1.2-0.8,2.7-0.8,2.7c2.5,2.7,2.6,1.1,4.4-1c1.8-2.1,3.6,1.2,3.6,1.2
	c-0.4,0.5-0.5,2.6-0.5,2.6c-0.1,3.8-2.5,6.8-4.4,6.8c-1.8-0.1-5.3-0.1-5.8-2.8s-1.8-1.4-2.4-1c-0.6,0.4-2.9,0.8-3.5,0.8
	c-0.7-0.1-1.4,0.4-1.6,1.8c0,0,0.5,1.4-1.3,0.6c-1.8-0.8-3-0.7-4.3-0.4c0,0-0.3-0.6-0.3-3.1l0,0.1c0.3-3.4-0.6-2.4-0.9-3.3
	c-0.3-0.9-0.4-2.9-0.6-3.2c-0.2-0.4-2.8-1.7-3.3-3.7c-0.3-1.4-1-3.2-1.1-4.7l0-0.2l0-0.4c-0.1-0.4,1.1-2.4,1.1-2.4
	c0.7-1.7-0.3-2-0.6-2.7c-0.3-0.8-0.8-3-0.2-3.6s1-1.7,1-1.7c0.5-5.4,6.2-6.4,6.2-6.4s6.2,2.2,6.8,2.6c0.6,0.4,1.7,1.8,1.1,3.1
	c0,0-0.3,1.7,2.9,1.4l0.2-0.1c0,0,3.9-0.3,5.5,0.9l0.3,0.3c0.7,0.8,4.7,1.4,6.7,1.1c1.9-0.2,2.1-1.3,3.5-1.7l0.7-0.4
	c0,0,0.3,1.5-0.6,2.4C79,92,80,92.5,81.2,93c1.2,0.5,3.7,1,4.2,2.2C85.4,95.2,83.2,98.2,77.7,100.7z"/>
<path fill="none" stroke="#8E8E8E" stroke-miterlimit="10" d="M86.7,101.7c-1.2,3-2.7,2.7-3,2.3c-0.3-0.3-2.2-0.5-2.2,0.4
	c0,1-1.2,1.6-1.2,1.6c-4,1.1-5,2.4-5,2.4s-1.9-3.3-3.6-1.2c-1.8,2.1-1.9,3.7-4.4,1c0,0-2.1-1.5,0.8-2.7c0,0,2.3-1.1,2.4-2
	c0.2-0.9,1.3-0.1,2.2,0.5c0.8,0.6,2.5,1.7,3.6-1.3c0,0-0.1-1.3,1.4-2c5.5-2.5,7.6-5.7,7.7-5.5c0.2,0.3,0,3.5,2.8,3
	C88.6,98.1,86.7,101.7,86.7,101.7z"/>
<path fill="none" stroke="#8E8E8E" stroke-miterlimit="10" d="M89.4,95c-0.3-0.5,0-0.8,1.5-2.1c1.5-1.3,1.2-6.5,1.2-6.5
	c0,0.9-4.2,1.5-5.2,0.9c-1.1-0.7-1.7-1.3-3.4-0.9c-0.8,0.2-2.9,2.3-2.9,2.3s0.3,1.5-0.6,2.4c-0.9,0.9,0.1,1.5,1.3,2
	c1.2,0.5,3.7,1,4.2,2.2c0,0,0.1,3.2,2.2,2.9l0.6,0C88.2,98.2,89.9,96,89.4,95z"/>
<path fill="none" stroke="#8E8E8E" d="M22.5,100.6c0.1-0.3,0.5,0.2,1.5-0.1s2.1-0.8,3.6-0.5c1.5,0.3,3.4,2.1,2.9,5
	c-0.5,3-4.4,2.5-5.4,1.8c-0.8-0.6-0.1-0.9-2.1-1.6c-2-0.7-1.5-1.9-0.8-3C22.3,102.2,22.2,101.2,22.5,100.6z"/>
<path fill="none" stroke="#8E8E8E" d="M51.3,113.8c0.3-3.4-0.6-2.4-0.9-3.3c-0.3-0.9-0.4-2.9-0.6-3.2c-0.2-0.4-2.8-1.7-3.3-3.7
	c-0.3-1.4-1-3.2-1.1-4.7l0-0.2c-0.1-1.1-2-2-2.9-1.1c-0.5,0.5-2.9,1.9-3.9,1.4c-1.1-0.4-2.2-0.4-3.8,0.2c-1.6,0.6-3.1-2.6-4.1-3.2
	s-4.4-3.1-5.5-1.1c-1.1,1.9-4.2,3.9-4.2,3.9c-0.8,0-1.9-0.5-1.9-0.5c-1.1-0.9-3-3.6-3-3.6s-0.4-0.8-0.9,0.1c-0.7,1.2,0.1,1.1,0,1.9
	c-0.1,0.7-2.6,1.5-1.5,3.9c1.1,2.4-0.7,2.7-2.2,3.1c-1.5,0.4-2.6-0.3-5.2,0s-1.5,2.1,0.5,3.2c2,1.1,1.6,2.6-0.5,3.1
	c-1.3,0.3-1.7,0.1-1.6,1.1c0.4,3.5-1.1,2.6-1.7,3.2c-0.7,0.6-1,1.2-0.5,2.4s1.1,0.9,1.1,2.2s-1.9,1.9,1.2,2.9c3.1,1,1,2,0.4,2.4
	c-1.7,0.9-3.2,4.1-4.2,6.7s1.3,1.3,1.4,1.9c0.3,1.3,1.4,3.4,5,0c6.7,0.6,1.9-4.1,2.7-4.1c0.9,0,3.7-0.9,4.5-1
	c0.7-0.1,3.2,1.1,3.2,1.1l4,1.5c0,0,4,0,6.6,0.1c2.6,0.1,3.4,0.3,4.5-0.4s0.6-2.5,1-3.1c0.4-0.6,2.5-0.4,3.7-0.4
	c1.2,0,0.1-2.5,2.7-1.5c2.6,1,3.5,0.1,3.6-1.7c0.1-1.9-3.1-5,2-3.4c5.1,1.6,5.1-1.2,5.6-2.2l0.1-0.8
	C51.6,116.8,51.3,116.2,51.3,113.8"/>
<path fill="none" stroke="#8E8E8E" d="M19.1,77.7c-2.3,0.3,0.9,3.1,0.9,3.1c2.8,3.7-1,6.4-1.1,6.5c-0.1,0.1-2.4,1.4-2.1,3
	c0.4,1.7-0.4,1.4-0.7,1.9c-1.1,1.6-0.2,2.4-0.2,2.4s1.9,2.7,3,3.6c0,0,1.1,0.5,1.9,0.5c0,0,3.1-1.9,4.2-3.9c1.1-1.9,4.5,0.5,5.5,1.1
	s2.5,3.8,4.1,3.2c1.6-0.6,2.7-0.6,3.8-0.2c1.1,0.4,3.3-0.9,3.9-1.4c1.6-1.3,3,1.1,2.9,0.7c-0.1-0.4,1.1-2.4,1.1-2.4
	c0.7-1.7-0.3-2-0.6-2.7c-0.3-0.8-0.8-3-0.2-3.6c0.7-0.5,1-1.7,1-1.7c0.5-5.4,6.2-6.4,6.2-6.4c0-0.6-0.4-2.4-0.6-3.3
	c-0.2-0.9-5-1.4-5-1.4c0.5,1.8-4.6,1.5-5.8,1.2c-1.2-0.4-1.4-2.3-2.5-3.6c-1.1-1.3-3.1,0.8-4,1.6c-1,0.8-3,0.7-2.9-0.6
	c0.1-1.2-0.8-3-1.9-3.2c-1.1-0.2-2.1,1.2-3.2,3.8c-1.1,2.6-5,1.1-5,1.1L19.1,77.7z"/>
<path fill="none" stroke="#8E8E8E" stroke-miterlimit="10" d="M67.4,47.3c-0.8,1.4-0.5,3-0.5,3s1,4.1-3.5,2.3
	c-4.5-1.8-3.9,0-5.2,0.4c-1.4,0.4-2.7,2.6-4,3.7c-1.3,1.1-3.9,1.7-2.8,3.1c1.1,1.3,1.8,2.5,1.5,3.9c-0.3,1.4-2.3,2.6-1.8,3.8
	c0.6,1.2,2.1,1.5,3.7,1.4c1.6-0.1,1.9,1.3,0.7,3.2c-1.2,1.9-1.4,4.2-1.9,4.6L52.3,78c-2.1-1.1-5.2-1.2-5.2-1.2L47,76
	c-1.1-2.9-1.3-4.7-1.6-5.3c-0.7-1.5-2.2-0.8-2.2-0.8l0.4-0.9c0.1-0.2,0.3-1.8,0.4-2.5s0.1-2-0.1-2.5c-0.2-0.5-0.6-0.4-1.1-0.6
	c-0.5-0.2-2.4-1.7-2.4-1.7s-1.2-2.1-1.9-3.1c-2.4-3,0.5-3.6,0.5-3.6s5.3-1,0.7-4.9c0,0,1.6-3.1,2.3-3.5s2.4-0.7,3.3-1.2
	s3.1-2.4,3.1-2.4l0.4-0.4l0.2-0.2c0,0,4.1,1.3,5.2-2.4c0,0,0.8-1.9,1.4,0.4c0.6,2.3,3-0.6,3-0.6s1.3-1.3,2.7,1
	c1.4,2.3,0.5,1.7,4.7,2.7c0,0,2.1-0.2,2.6,2.5C68.8,46,67.8,46.4,67.4,47.3z"/>
<path fill="none" stroke="#8E8E8E" stroke-miterlimit="10" d="M39.1,54.9c5.3-1.6,0.8-4.8,0.8-4.8l-0.1-0.1c0,0-0.6,0.1-3.7-1
	c-3.1-1.1-5.1,0-5.1,0c-5.5,1.8-6.7-2-7-1.9c-0.3,0.1-1.4-0.1-1.4-0.1c-0.2-0.1-0.8-0.2-3.2-1.2c-2.5-1-3.4-0.3-3.9,0
	c-0.5,0.2-5.3,4.2-5.9,4.7c-0.9,0.9-0.5,2.7-0.7,4.5c-0.2,1.7-0.2,4.2,1.6,3c1.9-1.2,3.4,0.7,2.4,3c-1,2.2,0.6,5.1,3.4,5.4
	s2.9,3.6,2,4.2c-0.9,0.6-2,1,0.9,3.7l2.6,2.7c0,0,4,1.5,5-1.1c1.1-2.6,2.1-4,3.2-3.8c1.1,0.2,2,1.9,1.9,3.2
	c-0.1,1.2,1.9,1.4,2.9,0.6c1-0.8,3-2.8,4-1.6c1.1,1.3,1.2,3.2,2.5,3.6c1.2,0.4,6.7,1.1,5.7-1.9c-1.1-2.9-1.3-4.7-1.6-5.3
	c-0.6-1.3-1.7-1.1-2.2-0.8l-0.2,0.3c-0.7,0.9-0.6,0.8-0.8,1s-1.1,0.8-2,0.3c-0.9-0.5-2.7,0-3-4.2c-0.1-0.9,0.3-2.5,0.3-2.5
	s0-0.1-1.1-0.3c-0.9-0.2-1.2-1.2-1.5-3.4c-0.3-2.2,0.4-2.1-0.4-2.2c-0.7-0.1-0.3-0.8-0.1-1.6c0.2-0.7-0.5-1.4-0.7-2.4
	c-0.2-1,1.2-1.8,1.7-0.8c0.5,0.9,1.6,1.4,2.4,1.3C38.1,55.4,38.7,55,39.1,54.9z"/>
<path fill="none" stroke="#8E8E8E" stroke-miterlimit="10" d="M69.6,89.6c0.7,0.8,4.7,1.4,6.7,1.1c1.9-0.2,2.1-1.3,3.5-1.7
	c1.4-0.4,2.3-2.4,3.7-2.7c1.4-0.3,2.4,0.3,3.4,0.9s5.3,0,5.3-0.9c0-0.1-0.1-0.5-0.1-0.5c-0.7-1.4-0.1-1,0.6-2.4
	c0.7-1.4,0.5-2.2,1.4-4c0.9-1.7-0.3-2.5,0-4.2c0.2-1.7-1.5-1.6-1.6-0.7c-0.1,0.9-2.1,2-2.5,1.2c-0.4-0.7,0-1.7-0.2-2.7
	c-0.3-1-0.6-2.2-0.9-5.6c-0.3-3.4,0.7-1.6,1.5-3c0.7-1.4-0.7-4.4-0.5-6.4c0.2-2,1.1-5.6,0-6.6c-0.9-0.8-0.3-1.5-0.2-2
	c0.1-0.5,0.9-4.3,0-5.1c-0.9-0.8-2-3.1-2-3.1s-2.1,3.6-3.8,3.6c-1.7-0.1-3.9-0.9-4.2-0.9s-1,0.2-1.3,0.9c-0.3,0.7-1.7,0.6-2.6,0
	s-1.3-0.1-2.6,0.2c-1.2,0.3-4.5,0.2-5.7,2.2c-0.8,1.3-0.5,3-0.5,3s1,4.1-3.5,2.3c-4.5-1.8-3.9,0-5.2,0.4c-1.4,0.4-2.7,2.6-4,3.7
	c-1.3,1.1-3.9,1.7-2.8,3.1s1.8,2.5,1.5,3.9c-0.3,1.4-2.3,2.6-1.8,3.8c0.6,1.2,2.1,1.5,3.7,1.4c1.6-0.1,1.9,1.3,0.7,3.2
	c-1.2,1.9-1.4,4.2-1.9,4.6c-0.7,0.7-1.4,1.3-1.4,1.3s0.6,2,0.6,3.3c0,0,6.2,2.2,6.8,2.6c0.6,0.4,1.7,1.8,1.1,3.1
	c0,0-0.3,1.7,2.9,1.4c0,0,2.7-3.5,0.8-5.8c0,0-1.7-1.6,0.8-2.6c2.4-1,1.5-2.5,3.5-2.6c2-0.1,3.6-1.1,4.2-0.6
	c0.6,0.6,3.4,3.1,2.3,4.2s-3.5,5-4.3,5.5c-0.8,0.4-2,0.4-1.9,1.1c0,0.2,0.4,1.5,0.4,1.5L69.6,89.6z"/>
<path fill="none" stroke="#8E8E8E" stroke-miterlimit="10" d="M87.6,41.3c0,0-2.1,3.6-3.8,3.6c-1.7-0.1-3.9-0.9-4.2-0.9
	s-1,0.2-1.3,0.9c-0.3,0.7-1.7,0.5-2.6,0c-1.1-0.6-1.3,0.1-2.7,0.2c-3,0.2-4.1,0.9-4.1,0.9c-0.5-2.7-2.6-2.5-2.6-2.5
	c-4.3-1-3.3-0.4-4.7-2.7c-1.4-2.3-2.7-1-2.7-1s-2.3,2.9-3,0.6c-0.6-2.3-1.4-0.4-1.4-0.4c-1.1,3.6-5.2,2.4-5.2,2.4l0-0.2
	c0,0,0.3-3.7,0.6-4.9c0.3-1.1,0.1-2.9-0.2-3.6c-0.2-0.6,0.1-1.1,0.1-1.1c2.1-4.5-1.4-3.2-2.5-3.6c-0.6-0.2-2.5-0.6-2.7-1.5
	c-0.2-0.9-0.8-2.8-0.8-4.3s0.7-2,0.7-2.7c0-0.7,1-3.3-5.2-6.5c-6.3-3.3-4.5-5.4-4.5-5.4c1.8-1,2.8-2.1,3.5-1.2
	c0.6,0.9,2,1.7,3.5,0.4c1.5-1.4,3.7-1.3,3.9-0.6C45.5,7.9,46,8.7,48,8.6c2-0.1,8.3,0.3,8.3-2c0-2.3,3.5-2.4,4.1-1.8
	c0.6,0.6,1,3.3,1.5-0.3s2-6,3.7-1.8c1.7,4.2,1.2,4.6,2.1,5.5c0.9,0.9,1.4,2.4,1.4,3.9s3.4,4.5,4.6,6.4c1.2,1.9,4.7,5.3,5.7,6.5
	c0.8,0.9,1.6,5.5,3.1,7.6c1.5,2.1,3.2,2.5,4.4,6.7C87.5,41.2,87.6,41.4,87.6,41.3"/>
<path fill="none" stroke="#8E8E8E" stroke-miterlimit="10" d="M69.3,89.2c0,0-0.4-1.4-0.4-1.5c-0.1-0.8,1.1-0.7,1.9-1.1
	c0.8-0.4,3.2-4.4,4.3-5.5s-1.7-3.7-2.3-4.2c-0.6-0.6-2.2,0.4-4.2,0.6c-2,0.1-1.1,1.6-3.5,2.6c-2.4,1-0.8,2.6-0.8,2.6
	c1.9,2-0.6,5.7-0.6,5.7S67.7,88.1,69.3,89.2z"/>
<path fill="none" stroke="#8E8E8E" stroke-miterlimit="10" d="M49.2,42.4l0-0.2c0,0,0.3-3.7,0.6-4.9c0.3-1.1,0.1-2.9-0.2-3.6
	c-0.2-0.6,0.1-1.1,0.1-1.1c2.1-4.5-1.4-3.2-2.5-3.6c-0.6-0.2-2.5-0.6-2.7-1.5c-0.2-0.9-0.8-2.8-0.8-4.3s0.7-2,0.7-2.7
	c0-0.7,1-3.3-5.2-6.5c-6.3-3.3-4.5-5.4-4.5-5.4s-6.4,1.6-6.8,1.9c-0.4,0.3-2.2,1.4-2.8,1.6c-0.5,0.1-2.1,0.7,0,1.7
	c2.1,0.9,3.8,1.5,0.8,3.5c-3,2-3.3,0.7-2.1,2c1.2,1.3,0.9,2.6-2.2,4.1c0,0-3,2.5-1.4,3.6c0,0,0.6-0.2,0.6,2.3c0,0-0.2,0.6,1.4,0.1
	s3.2-0.4,3.7,0.4c0.5,0.8,1.9,2.9-1.6,5.6l-1.9,2c0,0,0.1,2.1-1,2.5c-1.1,0.4-1.5,1.4-0.7,2.6c0.9,1.3,3.3,4,3.4,4.3
	c0.1,0.3,1.7,4,6.9,2.3c0,0,2-1.2,5.1,0c3.1,1.1,3.8,1,3.8,1s1.6-3.1,2.3-3.5c0.7-0.4,2.4-0.7,3.3-1.2s3.1-2.4,3.1-2.4l0.4-0.4
	L49.2,42.4z"/>
<path fill="none" stroke="#8E8E8E" d="M43.2,69.9L43,70.2c-0.7,0.9-0.6,0.8-0.8,1c-0.2,0.2-1.1,0.8-2,0.3c-0.9-0.5-2.7,0-3-4.2
	s2.9-3.7,3.3-4.6c0,0,0.2-0.7,0.1-1c-0.1-0.3,1.9,1.5,2.4,1.7c0.5,0.2,0.8,0.1,1.1,0.6c0.2,0.5,0.2,1.9,0.1,2.5s-0.4,2.3-0.4,2.5
	L43.2,69.9z"/>
<path fill="none" stroke="#8E8E8E" stroke-miterlimit="10" d="M22.1,37.5c0.3-2.6-1-4-2.8-4.2c-1.9-0.1-1.6,3.9-4.9,0
	c-3.2-3.9-0.6-3.6-1.1-4.6c-0.5-1-2.7-0.5-3.4-1c-0.6-0.5-1.5-1.1-0.5-2.2c1-1.1,1.2-1.9,2.2-2.9c1-1,1.7,0.4,3-0.5
	c0.5-0.3,0.7-2.2,2-1.6c1.2,0.6,1.9,1.8,2.4,2.4c0,0,0.5,1.1,2.2,0.6l0,0c0,0-2.9,2.4-1.3,3.5c0,0,0.6-0.2,0.6,2.3
	c0,0-0.2,0.6,1.4,0.1s3.2-0.4,3.7,0.4c0.5,0.8,1.9,2.9-1.6,5.6L22.1,37.5L22.1,37.5z"/>
<path fill="none" stroke="#8E8E8E" stroke-miterlimit="10" d="M26.1,33.2c0,0,3.4,0.4,4,0.9s2.4,0.2,2.7-0.7
	c0.3-0.9,1.5-0.4,2.1-0.9c0.6-0.6,0.6-1.4,0.3-2.1c-0.2-0.7-0.6-0.5-0.6-1.5c-0.1-1-1-2.3-1.9-2.9c-0.9-0.6-2.2,0-2.6,0.6
	c-0.4,0.5-4.1,3.8-4.1,3.8S26.7,31.2,26.1,33.2z"/>
<path fill="none" stroke="#8E8E8E" stroke-miterlimit="10" d="M37.9,55.7c-0.4,0.5-0.4,1.4,0.7,2.8c0.7,0.9,2,3.2,2,3.2l0,0
	c0.2,0.3-0.3,1-0.3,1c-0.3,0.6-2,0.5-2.9,2l-0.2,0c0,0,0,0-0.9-0.2c-0.9-0.2-1.2-1.2-1.5-3.4s0.4-2.1-0.4-2.1
	c-0.7-0.1-0.3-0.8-0.1-1.6c0.2-0.7-0.5-1.4-0.7-2.4c-0.2-1,1.3-1.8,1.7-0.8c0.6,1.3,2.5,1.4,2.5,1.4S37.9,55.7,37.9,55.7z"/>
<path fill="none" stroke="#8E8E8E" stroke-miterlimit="10" d="M15.1,139.2c0,0-1.6,2.5-4.5,2.9c-2.9,0.4-1.9,4.3-0.2,5.3
	c1.7,1,2.2,2.8,4.5,1.2c1.2-0.8,3.5,0.1,6.5-0.2c1.2-0.1,8.5-3.5,8-6.5c-0.6-3-2-4.9-5.2-3.9c-3.2,1-5.5,0.8-6.4,0.8
	C16.8,138.8,16,138.6,15.1,139.2z"/>
</svg>
